<svg width="879" height="970" viewBox="0 0 879 970" fill="none" xmlns="http://www.w3.org/2000/svg">
<rect width="879" height="970" fill="white"/>
<circle cx="518" cy="434" r="200" fill="#00B5E2"/>
<circle cx="311" cy="562" r="150" fill="#FFF200"/>
<circle cx="358" cy="412" r="150" fill="#EC008C"/>
<path d="M668 434C668 516.843 600.843 584 518 584C435.157 584 368 516.843 368 434C368 351.157 435.157 284 518 284C600.843 284 668 351.157 668 434ZM458.643 434C458.643 466.782 485.218 493.357 518 493.357C550.782 493.357 577.357 466.782 577.357 434C577.357 401.218 550.782 374.643 518 374.643C485.218 374.643 458.643 401.218 458.643 434Z" fill="#FFFCFC"/>
<rect x="369" y="453" width="93" height="283" fill="white"/>
<line x1="462.5" y1="573" x2="462.5" y2="736" stroke="#EC008C" stroke-width="3"/>
</svg>
